<svg width="23" height="20" viewBox="0 0 23 20" fill="none" xmlns="http://www.w3.org/2000/svg">
<path d="M1.68858 7.9031H4.7128V20H1.68858C1.13185 20 0.680511 19.5487 0.680511 18.9919V8.91117C0.680511 8.35443 1.13185 7.9031 1.68858 7.9031ZM7.0242 6.59977L13.4764 0.147635C13.6537 -0.0297351 13.9345 -0.0496848 14.1352 0.10081L14.9946 0.745412C15.4832 1.11187 15.7034 1.73628 15.5527 2.32815L14.3901 6.89503H20.842C21.9555 6.89503 22.8581 7.79769 22.8581 8.91117V11.0325C22.8581 11.2959 22.8065 11.5567 22.7063 11.8001L19.5869 19.3757C19.4314 19.7534 19.0632 20 18.6547 20H7.73702C7.18028 20 6.72895 19.5487 6.72895 18.9919V7.31259C6.72895 7.04523 6.83516 6.78883 7.0242 6.59977Z" fill="url(#paint0_linear_4111_295)"/>
<defs>
<linearGradient id="paint0_linear_4111_295" x1="22.8581" y1="0" x2="-6.35006" y2="23.4744" gradientUnits="userSpaceOnUse">
<stop stop-color="#AAD9D1"/>
<stop offset="1" stop-color="#017373"/>
</linearGradient>
</defs>
</svg>
