<svg width="1440" height="112" viewBox="0 0 1440 112" fill="none" xmlns="http://www.w3.org/2000/svg">
<g clip-path="url(#clip0_4111_158)">
<path fill-rule="evenodd" clip-rule="evenodd" d="M117.1 55.2C116.57 55.2 116.061 54.9893 115.686 54.6142C115.311 54.2391 115.1 53.7304 115.1 53.2V44H111.1V53.2C111.1 56.5136 113.786 59.2 117.1 59.2H121.5V55.2H117.1ZM129.1 48C128.627 48 128.159 48.0931 127.722 48.274C127.286 48.455 126.889 48.7201 126.554 49.0544C126.22 49.3887 125.955 49.7856 125.774 50.2223C125.593 50.6591 125.5 51.1272 125.5 51.6C125.5 52.0728 125.593 52.5409 125.774 52.9777C125.955 53.4144 126.22 53.8113 126.554 54.1456C126.889 54.4799 127.286 54.745 127.722 54.926C128.159 55.1069 128.627 55.2 129.1 55.2C130.055 55.2 130.97 54.8207 131.646 54.1456C132.321 53.4705 132.7 52.5548 132.7 51.6C132.7 50.6452 132.321 49.7295 131.646 49.0544C130.97 48.3793 130.055 48 129.1 48ZM121.5 51.6C121.5 47.4028 124.903 44 129.1 44C133.297 44 136.7 47.4028 136.7 51.6C136.7 55.7972 133.297 59.2 129.1 59.2C124.903 59.2 121.5 55.7972 121.5 51.6ZM172.3 48C171.345 48 170.43 48.3793 169.754 49.0544C169.079 49.7295 168.7 50.6452 168.7 51.6C168.7 52.5548 169.079 53.4705 169.754 54.1456C170.43 54.8207 171.345 55.2 172.3 55.2C173.255 55.2 174.17 54.8207 174.846 54.1456C175.521 53.4705 175.9 52.5548 175.9 51.6C175.9 50.6452 175.521 49.7295 174.846 49.0544C174.17 48.3793 173.255 48 172.3 48ZM164.7 51.6C164.7 47.4028 168.103 44 172.3 44C176.497 44 179.9 47.4028 179.9 51.6C179.9 55.7972 176.497 59.2 172.3 59.2C168.103 59.2 164.7 55.7972 164.7 51.6ZM145.1 44C140.903 44 137.5 47.4028 137.5 51.6C137.5 55.7972 140.903 59.2 145.1 59.2H156.3C157.088 59.2 157.847 59.08 158.562 58.8576L160.7 60L163.007 55.6784C163.593 54.5783 163.9 53.3509 163.9 52.1044V51.6C163.9 47.4028 160.497 44 156.3 44H145.1ZM159.9 51.6C159.9 50.6452 159.521 49.7295 158.846 49.0544C158.17 48.3793 157.255 48 156.3 48H145.1C144.627 48 144.159 48.0931 143.722 48.274C143.286 48.455 142.889 48.7201 142.554 49.0544C142.22 49.3887 141.955 49.7856 141.774 50.2223C141.593 50.6591 141.5 51.1272 141.5 51.6C141.5 52.0728 141.593 52.5409 141.774 52.9777C141.955 53.4144 142.22 53.8113 142.554 54.1456C142.889 54.4799 143.286 54.745 143.722 54.926C144.159 55.1069 144.627 55.2 145.1 55.2H156.3C157.25 55.2 158.161 54.8246 158.836 54.1555C159.51 53.4864 159.893 52.5779 159.9 51.628V51.6Z" fill="#AAD9D1"/>
<path d="M181.5 45C181.5 45.2652 181.395 45.5196 181.207 45.7071C181.02 45.8946 180.765 46 180.5 46C180.235 46 179.98 45.8946 179.793 45.7071C179.605 45.5196 179.5 45.2652 179.5 45C179.5 44.7348 179.605 44.4804 179.793 44.2929C179.98 44.1054 180.235 44 180.5 44C180.765 44 181.02 44.1054 181.207 44.2929C181.395 44.4804 181.5 44.7348 181.5 45Z" fill="#AAD9D1"/>
</g>
<g clip-path="url(#clip1_4111_158)">
<path d="M270.409 60C274.777 60 278.318 56.4184 278.318 52V46.4C278.318 45.7635 278.068 45.153 277.623 44.7029C277.178 44.2529 276.575 44 275.945 44H270.805V47.5096C270.805 48.3104 270.853 49.14 271.268 49.8216C271.565 50.3101 271.963 50.7282 272.434 51.0475C272.905 51.3669 273.439 51.58 273.998 51.6724L274.15 51.6972C274.212 51.7188 274.266 51.7596 274.305 51.8139C274.343 51.8682 274.364 51.9333 274.364 52C274.364 52.0667 274.343 52.1318 274.305 52.1861C274.266 52.2404 274.212 52.2812 274.15 52.3028L273.998 52.3276C273.181 52.4627 272.425 52.8542 271.839 53.4468C271.254 54.0395 270.867 54.8033 270.733 55.6304L270.708 55.7836C270.687 55.8468 270.647 55.9016 270.593 55.9404C270.539 55.9792 270.475 56.0001 270.409 56.0001C270.343 56.0001 270.279 55.9792 270.225 55.9404C270.171 55.9016 270.131 55.8468 270.11 55.7836L270.085 55.6304C269.994 55.0643 269.783 54.5247 269.467 54.0482C269.152 53.5717 268.738 53.1695 268.255 52.8688C267.582 52.4488 266.761 52.4 265.97 52.4H262.509C262.716 56.6324 266.174 60 270.409 60Z" fill="#AAD9D1"/>
<path d="M262.5 51.6H265.97C266.761 51.6 267.582 51.5512 268.255 51.1312C268.782 50.8029 269.226 50.3544 269.55 49.8216C269.965 49.14 270.014 48.3104 270.014 47.5096V44H264.873C264.243 44 263.64 44.2529 263.195 44.7029C262.75 45.153 262.5 45.7635 262.5 46.4V51.6ZM280.871 44.8C280.871 45.0122 280.788 45.2157 280.639 45.3657C280.491 45.5157 280.29 45.6 280.08 45.6C279.87 45.6 279.669 45.5157 279.521 45.3657C279.372 45.2157 279.289 45.0122 279.289 44.8C279.289 44.5878 279.372 44.3843 279.521 44.2343C279.669 44.0843 279.87 44 280.08 44C280.29 44 280.491 44.0843 280.639 44.2343C280.788 44.3843 280.871 44.5878 280.871 44.8ZM346.222 48.8416C348.433 48.8416 349.5 50.4036 349.5 52.2128V55.6108H347.186V52.616C347.186 51.796 346.89 51.1192 346.042 51.1192C345.194 51.1192 344.911 51.796 344.911 52.616V55.6104H342.597V52.616C342.597 51.796 342.315 51.1192 341.466 51.1192C340.618 51.1192 340.322 51.796 340.322 52.616V55.6104H338.008V52.2124C338.008 50.4032 339.075 48.8412 341.286 48.8412C342.495 48.8412 343.368 49.3228 343.767 50.1168C344.191 49.3228 345.117 48.8408 346.222 48.8408V48.8416ZM333.851 53.528C334.596 53.528 334.918 52.838 334.918 52.0176V49.1016H337.231V52.304C337.231 54.2176 336.126 55.806 333.851 55.806C331.575 55.806 330.47 54.218 330.47 52.304V49.1016H332.784V52.0176C332.784 52.8376 333.105 53.528 333.851 53.528ZM327.068 55.8188C325.615 55.8188 324.677 55.3112 324.124 54.322L325.795 53.3716C326.027 53.788 326.373 53.9964 326.952 53.9964C327.428 53.9964 327.646 53.8272 327.646 53.6188C327.646 52.8248 324.253 53.632 324.253 51.1068C324.253 49.8828 325.281 48.8936 327.029 48.8936C328.559 48.8936 329.394 49.6484 329.767 50.3776L328.096 51.3408C327.955 50.9504 327.517 50.716 327.08 50.716C326.746 50.716 326.566 50.8592 326.566 51.0544C326.566 51.8616 329.96 51.1196 329.96 53.5668C329.96 54.9336 328.636 55.8188 327.068 55.8188ZM318.984 58.6048H316.67V52.3432C316.67 50.3512 318.148 48.9064 320.205 48.9064C322.21 48.9064 323.74 50.4556 323.74 52.3432C323.74 54.426 322.377 55.806 320.334 55.806C319.858 55.806 319.383 55.6628 318.984 55.4412V58.6048ZM320.205 53.606C320.938 53.606 321.426 53.0332 321.426 52.356C321.426 51.6664 320.938 51.1064 320.205 51.1064C319.472 51.1064 318.984 51.6664 318.984 52.3564C318.984 53.0332 319.472 53.606 320.205 53.606ZM314.352 48.412C313.594 48.412 312.964 47.774 312.964 47.006C312.964 46.238 313.594 45.6 314.352 45.6C315.111 45.6 315.741 46.238 315.741 47.006C315.741 47.774 315.111 48.412 314.352 48.412ZM313.196 49.1016H315.509V55.6108H313.196V49.1016ZM308.756 55.806C306.751 55.806 305.221 54.244 305.221 52.3432C305.221 50.4556 306.751 48.8936 308.756 48.8936C310.762 48.8936 312.291 50.4556 312.291 52.3432C312.291 54.244 310.762 55.806 308.756 55.806ZM308.756 53.606C309.489 53.606 309.977 53.0332 309.977 52.356C309.977 51.6664 309.489 51.0936 308.756 51.0936C308.024 51.0936 307.535 51.6664 307.535 52.356C307.535 53.0332 308.024 53.606 308.756 53.606ZM300.852 58.8C299.259 58.8 298.102 58.084 297.51 56.808L299.426 55.7668C299.631 56.2096 300.017 56.6652 300.814 56.6652C301.65 56.6652 302.202 56.1312 302.267 55.194C301.958 55.4676 301.469 55.6756 300.737 55.6756C298.95 55.6756 297.51 54.2828 297.51 52.33C297.51 50.4428 299.04 48.9064 301.045 48.9064C303.102 48.9064 304.58 50.3516 304.58 52.3432V54.9208C304.58 57.264 302.973 58.8 300.852 58.8ZM301.007 53.476C301.701 53.476 302.228 52.994 302.228 52.278C302.228 51.5752 301.701 51.1064 301.007 51.1064C300.325 51.1064 299.785 51.5752 299.785 52.2784C299.785 52.9944 300.325 53.4756 301.007 53.4756V53.476ZM293.585 55.806C291.58 55.806 290.05 54.244 290.05 52.3432C290.05 50.4556 291.58 48.8936 293.585 48.8936C295.59 48.8936 297.12 50.4556 297.12 52.3432C297.12 54.244 295.591 55.806 293.585 55.806ZM293.585 53.606C294.318 53.606 294.807 53.0332 294.807 52.356C294.807 51.6664 294.318 51.0936 293.585 51.0936C292.853 51.0936 292.364 51.6664 292.364 52.356C292.364 53.0332 292.853 53.606 293.585 53.606ZM285.837 46.824V53.3976H289.668V55.6108H285.515C284.05 55.6108 283.459 54.8296 283.459 53.5928V46.824H285.837Z" fill="#AAD9D1"/>
</g>
<g clip-path="url(#clip2_4111_158)">
<path fill-rule="evenodd" clip-rule="evenodd" d="M436.5 55.2C435.97 55.2 435.461 54.9893 435.086 54.6142C434.711 54.2391 434.5 53.7304 434.5 53.2V44H430.5V53.2C430.5 56.5136 433.186 59.2 436.5 59.2H440.9V55.2H436.5ZM448.5 48C448.027 48 447.559 48.0931 447.122 48.274C446.686 48.455 446.289 48.7201 445.954 49.0544C445.62 49.3887 445.355 49.7856 445.174 50.2223C444.993 50.6591 444.9 51.1272 444.9 51.6C444.9 52.0728 444.993 52.5409 445.174 52.9777C445.355 53.4144 445.62 53.8113 445.954 54.1456C446.289 54.4799 446.686 54.745 447.122 54.926C447.559 55.1069 448.027 55.2 448.5 55.2C449.455 55.2 450.37 54.8207 451.046 54.1456C451.721 53.4705 452.1 52.5548 452.1 51.6C452.1 50.6452 451.721 49.7295 451.046 49.0544C450.37 48.3793 449.455 48 448.5 48ZM440.9 51.6C440.9 47.4028 444.303 44 448.5 44C452.697 44 456.1 47.4028 456.1 51.6C456.1 55.7972 452.697 59.2 448.5 59.2C444.303 59.2 440.9 55.7972 440.9 51.6ZM491.7 48C490.745 48 489.83 48.3793 489.154 49.0544C488.479 49.7295 488.1 50.6452 488.1 51.6C488.1 52.5548 488.479 53.4705 489.154 54.1456C489.83 54.8207 490.745 55.2 491.7 55.2C492.655 55.2 493.57 54.8207 494.246 54.1456C494.921 53.4705 495.3 52.5548 495.3 51.6C495.3 50.6452 494.921 49.7295 494.246 49.0544C493.57 48.3793 492.655 48 491.7 48ZM484.1 51.6C484.1 47.4028 487.503 44 491.7 44C495.897 44 499.3 47.4028 499.3 51.6C499.3 55.7972 495.897 59.2 491.7 59.2C487.503 59.2 484.1 55.7972 484.1 51.6ZM464.5 44C460.303 44 456.9 47.4028 456.9 51.6C456.9 55.7972 460.303 59.2 464.5 59.2H475.7C476.488 59.2 477.247 59.08 477.962 58.8576L480.1 60L482.407 55.6784C482.993 54.5783 483.3 53.3509 483.3 52.1044V51.6C483.3 47.4028 479.897 44 475.7 44H464.5ZM479.3 51.6C479.3 50.6452 478.921 49.7295 478.246 49.0544C477.57 48.3793 476.655 48 475.7 48H464.5C464.027 48 463.559 48.0931 463.122 48.274C462.686 48.455 462.289 48.7201 461.954 49.0544C461.62 49.3887 461.355 49.7856 461.174 50.2223C460.993 50.6591 460.9 51.1272 460.9 51.6C460.9 52.0728 460.993 52.5409 461.174 52.9777C461.355 53.4144 461.62 53.8113 461.954 54.1456C462.289 54.4799 462.686 54.745 463.122 54.926C463.559 55.1069 464.027 55.2 464.5 55.2H475.7C476.65 55.2 477.561 54.8246 478.236 54.1555C478.91 53.4864 479.293 52.5779 479.3 51.628V51.6Z" fill="#AAD9D1"/>
<path d="M500.9 45C500.9 45.2652 500.795 45.5196 500.607 45.7071C500.42 45.8946 500.165 46 499.9 46C499.635 46 499.38 45.8946 499.193 45.7071C499.005 45.5196 498.9 45.2652 498.9 45C498.9 44.7348 499.005 44.4804 499.193 44.2929C499.38 44.1054 499.635 44 499.9 44C500.165 44 500.42 44.1054 500.607 44.2929C500.795 44.4804 500.9 44.7348 500.9 45Z" fill="#AAD9D1"/>
</g>
<g clip-path="url(#clip3_4111_158)">
<path d="M630.842 55.8096H632.707V48.7742H630.842V55.8096ZM630.842 47.6771H632.707V46.0039H630.842V47.6771Z" fill="#AAD9D1"/>
<path d="M633.909 58.1135H635.774V55.014H635.802C636.199 55.6175 636.844 56.0152 637.831 56.0152C639.642 56.0152 640.876 54.5752 640.876 52.2986C640.876 50.1043 639.683 48.582 637.818 48.582C636.858 48.582 636.199 49.0346 635.747 49.6518H635.706V48.774H633.909V58.1135ZM637.434 54.4655C636.323 54.4655 635.733 53.6289 635.733 52.3535C635.733 51.0918 636.199 50.0906 637.365 50.0906C638.517 50.0906 638.983 51.0232 638.983 52.3535C638.983 53.6838 638.38 54.4655 637.434 54.4655Z" fill="#AAD9D1"/>
<path d="M644.596 56.0152C646.352 56.0152 647.559 55.1649 647.559 53.7523C647.559 52.1066 646.256 51.7775 645.076 51.5306C644.075 51.3249 643.143 51.27 643.143 50.6666C643.143 50.1592 643.623 49.8849 644.35 49.8849C645.145 49.8849 645.625 50.1592 645.707 50.9135H647.394C647.257 49.5009 646.228 48.582 644.377 48.582C642.772 48.582 641.511 49.3089 641.511 50.8312C641.511 52.3672 642.745 52.71 644.007 52.9569C644.967 53.1489 645.858 53.2175 645.858 53.8895C645.858 54.3832 645.392 54.6986 644.569 54.6986C643.732 54.6986 643.156 54.342 643.033 53.5329H641.305C641.415 55.0278 642.553 56.0152 644.596 56.0152Z" fill="#AAD9D1"/>
<path d="M654.64 55.8096V48.7742H652.775V52.8336C652.775 53.7662 652.24 54.4244 651.362 54.4244C650.567 54.4244 650.197 53.9719 650.197 53.1491V48.7742H648.345V53.4645C648.345 55.0005 649.223 56.0016 650.786 56.0016C651.774 56.0016 652.322 55.6313 652.802 54.9868H652.844V55.8096H654.64Z" fill="#AAD9D1"/>
<path d="M655.846 55.8095H657.712V51.7226C657.712 50.79 658.219 50.1866 658.974 50.1866C659.659 50.1866 660.057 50.598 660.057 51.3935V55.8095H661.922V51.7226C661.922 50.79 662.402 50.1866 663.184 50.1866C663.87 50.1866 664.267 50.598 664.267 51.3935V55.8095H666.132V51.078C666.132 49.542 665.296 48.582 663.814 48.582C662.923 48.582 662.182 49.0483 661.702 49.8163H661.675C661.332 49.0758 660.619 48.582 659.728 48.582C658.754 48.582 658.068 49.0758 657.684 49.7203H657.643V48.774H655.846V55.8095Z" fill="#AAD9D1"/>
<path d="M582.23 55.8096H584.095V46.0039H582.23V55.8096Z" fill="#AAD9D1"/>
<path d="M588.655 56.0152C590.836 56.0152 592.331 54.3969 592.331 52.2986C592.331 50.2003 590.836 48.582 588.655 48.582C586.475 48.582 584.98 50.2003 584.98 52.2986C584.98 54.3969 586.475 56.0152 588.655 56.0152ZM588.655 54.5889C587.503 54.5889 586.872 53.67 586.872 52.2986C586.872 50.9272 587.503 49.9946 588.655 49.9946C589.794 49.9946 590.438 50.9272 590.438 52.2986C590.438 53.67 589.794 54.5889 588.655 54.5889Z" fill="#AAD9D1"/>
<path d="M596.297 58.2095C597.339 58.2095 598.245 57.9626 598.834 57.414C599.355 56.934 599.671 56.262 599.671 55.2746V48.774H597.874V49.5146H597.847C597.422 48.9249 596.777 48.582 595.899 48.582C594.117 48.582 592.855 49.926 592.855 52.0243C592.855 54.15 594.391 55.3843 595.954 55.3843C596.846 55.3843 597.381 55.0278 597.792 54.5615H597.833V55.3295C597.833 56.2895 597.326 56.7969 596.27 56.7969C595.406 56.7969 595.008 56.454 594.857 56.0152H593.006C593.198 57.3866 594.377 58.2095 596.297 58.2095ZM596.27 53.8895C595.31 53.8895 594.679 53.19 594.679 51.9969C594.679 50.8175 595.31 50.0769 596.256 50.0769C597.381 50.0769 597.929 50.9546 597.929 51.9832C597.929 53.0255 597.449 53.8895 596.27 53.8895Z" fill="#AAD9D1"/>
<path d="M604.204 56.0152C606.385 56.0152 607.88 54.3969 607.88 52.2986C607.88 50.2003 606.385 48.582 604.204 48.582C602.024 48.582 600.529 50.2003 600.529 52.2986C600.529 54.3969 602.024 56.0152 604.204 56.0152ZM604.204 54.5889C603.052 54.5889 602.422 53.67 602.422 52.2986C602.422 50.9272 603.052 49.9946 604.204 49.9946C605.343 49.9946 605.987 50.9272 605.987 52.2986C605.987 53.67 605.343 54.5889 604.204 54.5889Z" fill="#AAD9D1"/>
<path d="M666.81 47.619C666.81 47.3034 667.066 47.0476 667.382 47.0476H668.524C668.84 47.0476 669.096 47.3034 669.096 47.619C669.096 47.9346 668.84 48.1905 668.524 48.1905H667.382C667.066 48.1905 666.81 47.9346 666.81 47.619Z" fill="#AAD9D1"/>
<path fill-rule="evenodd" clip-rule="evenodd" d="M619.191 44C623.609 44 627.191 47.5817 627.191 52C627.191 56.4183 623.609 60 619.191 60C614.773 60 611.191 56.4183 611.191 52C611.191 47.5817 614.773 44 619.191 44ZM618.902 44.5986C617.989 44.7271 617.12 45.4604 616.446 46.687C616.25 47.0427 616.073 47.4358 615.92 47.8602C616.837 47.6297 617.844 47.4938 618.902 47.4727V44.5986ZM615.243 48.0523C615.435 47.4518 615.669 46.8994 615.939 46.4083C616.273 45.8002 616.67 45.2752 617.117 44.8719C614.686 45.5781 612.769 47.4947 612.063 49.9263C612.466 49.4791 612.991 49.0822 613.599 48.7478C614.09 48.4777 614.643 48.2436 615.243 48.0523ZM615.051 48.7284C614.821 49.6457 614.685 50.6534 614.664 51.7108H611.79C611.918 50.7982 612.652 49.9291 613.878 49.2546C614.234 49.0589 614.627 48.8823 615.051 48.7284ZM615.242 51.7108C615.266 50.5568 615.432 49.4734 615.707 48.5161C616.664 48.2412 617.748 48.075 618.902 48.0512V49.3003C618.471 50.4025 617.593 51.2805 616.491 51.7108H615.242ZM614.664 52.2892H611.79C611.918 53.2018 612.652 54.0708 613.878 54.7454C614.234 54.9411 614.627 55.1177 615.051 55.2716C614.821 54.3543 614.685 53.3466 614.664 52.2892ZM615.707 55.4839C615.432 54.5266 615.266 53.4432 615.242 52.2892H616.491C617.593 52.7195 618.471 53.5975 618.902 54.6997V55.9488C617.748 55.925 616.664 55.7588 615.707 55.4839ZM615.243 55.9477C614.643 55.7564 614.09 55.5223 613.599 55.2522C612.991 54.9178 612.466 54.5209 612.063 54.0737C612.769 56.5053 614.686 58.4219 617.117 59.1281C616.67 58.7248 616.273 58.1998 615.939 57.5917C615.669 57.1006 615.435 56.5482 615.243 55.9477ZM618.902 59.4014C617.989 59.2729 617.12 58.5396 616.446 57.313C616.25 56.9573 616.073 56.5642 615.92 56.1398C616.837 56.3703 617.844 56.5062 618.902 56.5272V59.4014ZM621.265 59.1281C621.712 58.7248 622.109 58.1998 622.443 57.5917C622.713 57.1006 622.948 56.5482 623.139 55.9477C623.739 55.7564 624.292 55.5223 624.783 55.2522C625.391 54.9178 625.916 54.5209 626.319 54.0737C625.613 56.5053 623.696 58.4219 621.265 59.1281ZM622.463 56.1398C622.309 56.5642 622.132 56.9573 621.936 57.313C621.262 58.5396 620.393 59.2729 619.48 59.4014V56.5272C620.538 56.5062 621.545 56.3703 622.463 56.1398ZM623.331 55.2716C623.755 55.1177 624.148 54.9411 624.504 54.7454C625.731 54.0709 626.464 53.2018 626.592 52.2892H623.718C623.697 53.3466 623.561 54.3543 623.331 55.2716ZM623.14 52.2892C623.116 53.4432 622.95 54.5266 622.675 55.4839C621.718 55.7588 620.634 55.925 619.48 55.9488V54.7006C619.911 53.598 620.789 52.7196 621.891 52.2892H623.14ZM623.718 51.7108H626.592C626.464 50.7982 625.731 49.9291 624.504 49.2546C624.148 49.0589 623.755 48.8823 623.331 48.7284C623.561 49.6457 623.697 50.6534 623.718 51.7108ZM622.675 48.5161C622.95 49.4734 623.116 50.5568 623.14 51.7108H621.891C620.789 51.2804 619.911 50.402 619.48 49.2994V48.0512C620.634 48.075 621.718 48.2412 622.675 48.5161ZM623.139 48.0523C623.739 48.2436 624.292 48.4777 624.783 48.7478C625.391 49.0822 625.916 49.4791 626.319 49.9263C625.613 47.4947 623.696 45.5781 621.265 44.8719C621.712 45.2752 622.109 45.8002 622.443 46.4083C622.713 46.8994 622.948 47.4518 623.139 48.0523ZM619.48 44.5986C620.393 44.7271 621.262 45.4604 621.936 46.687C622.132 47.0427 622.309 47.4358 622.463 47.8602C621.545 47.6297 620.538 47.4938 619.48 47.4727V44.5986Z" fill="#AAD9D1"/>
</g>
<g clip-path="url(#clip4_4111_158)">
<path fill-rule="evenodd" clip-rule="evenodd" d="M760.322 48.6741C759.665 48.2346 758.891 48 758.1 48V44C759.682 44 761.229 44.4692 762.545 45.3482C763.86 46.2273 764.886 47.4767 765.491 48.9385C766.097 50.4003 766.255 52.0089 765.946 53.5607C765.638 55.1126 764.876 56.538 763.757 57.6568C762.638 58.7757 761.213 59.5376 759.661 59.8463C758.109 60.155 756.5 59.9965 755.039 59.391C753.577 58.7855 752.327 57.7602 751.448 56.4446C750.569 55.129 750.1 53.5822 750.1 52H754.1C754.1 52.7911 754.335 53.5645 754.774 54.2223C755.214 54.8801 755.838 55.3928 756.569 55.6955C757.3 55.9983 758.104 56.0775 758.88 55.9231C759.656 55.7688 760.369 55.3878 760.928 54.8284C761.488 54.269 761.869 53.5563 762.023 52.7804C762.178 52.0044 762.098 51.2002 761.796 50.4693C761.493 49.7384 760.98 49.1136 760.322 48.6741Z" fill="#AAD9D1"/>
<path fill-rule="evenodd" clip-rule="evenodd" d="M754.1 44C754.1 44.5253 753.997 45.0454 753.796 45.5307C753.595 46.016 753.3 46.457 752.928 46.8284C752.557 47.1999 752.116 47.4945 751.631 47.6955C751.145 47.8965 750.625 48 750.1 48L750.1 52C751.151 52 752.191 51.7931 753.162 51.391C754.132 50.989 755.014 50.3997 755.757 49.6568C756.5 48.914 757.089 48.0321 757.491 47.0615C757.893 46.0909 758.1 45.0506 758.1 44L754.1 44Z" fill="#AAD9D1"/>
<path d="M800.348 49.781H798.407V55.9459H800.348V49.781Z" fill="#AAD9D1"/>
<path d="M798.623 48.6267C798.826 48.8296 799.079 48.9311 799.384 48.9311C799.688 48.9311 799.938 48.8296 800.132 48.6267C800.327 48.4153 800.424 48.1616 800.424 47.8656C800.424 47.5612 800.327 47.3074 800.132 47.1045C799.938 46.9015 799.688 46.8 799.384 46.8C799.079 46.8 798.826 46.9015 798.623 47.1045C798.428 47.3074 798.331 47.5612 798.331 47.8656C798.331 48.1616 798.428 48.4153 798.623 48.6267Z" fill="#AAD9D1"/>
<path d="M770.562 55.9459V46.9902H772.554V54.1954H776.525V55.9459H770.562Z" fill="#AAD9D1"/>
<path fill-rule="evenodd" clip-rule="evenodd" d="M780.111 56.0854C779.477 56.0854 778.902 55.9458 778.386 55.6668C777.878 55.3792 777.477 54.9902 777.181 54.4997C776.885 54.0092 776.737 53.4596 776.737 52.8507C776.737 52.2418 776.885 51.6964 777.181 51.2143C777.477 50.7323 777.878 50.3517 778.386 50.0727C778.893 49.7851 779.468 49.6414 780.111 49.6414C780.754 49.6414 781.329 49.7809 781.836 50.06C782.344 50.339 782.745 50.7238 783.041 51.2143C783.337 51.6964 783.485 52.2418 783.485 52.8507C783.485 53.4596 783.337 54.0092 783.041 54.4997C782.745 54.9902 782.344 55.3792 781.836 55.6668C781.329 55.9458 780.754 56.0854 780.111 56.0854ZM780.111 54.3222C780.39 54.3222 780.635 54.263 780.847 54.1446C781.058 54.0177 781.219 53.8444 781.329 53.6245C781.447 53.3962 781.506 53.1382 781.506 52.8507C781.506 52.5632 781.447 52.3137 781.329 52.1023C781.21 51.8824 781.045 51.7133 780.834 51.5949C780.631 51.468 780.39 51.4046 780.111 51.4046C779.84 51.4046 779.599 51.468 779.388 51.5949C779.177 51.7133 779.012 51.8824 778.893 52.1023C778.775 52.3222 778.716 52.5758 778.716 52.8634C778.716 53.1424 778.775 53.3962 778.893 53.6245C779.012 53.8444 779.177 54.0177 779.388 54.1446C779.599 54.263 779.84 54.3222 780.111 54.3222Z" fill="#AAD9D1"/>
<path fill-rule="evenodd" clip-rule="evenodd" d="M785.022 58.356C785.538 58.5928 786.134 58.7112 786.811 58.7112C787.471 58.7112 788.058 58.5801 788.574 58.3179C789.09 58.0558 789.496 57.6922 789.792 57.2271C790.088 56.7619 790.236 56.2123 790.236 55.578V49.7809H788.333V50.1951C788.192 50.076 788.031 49.976 787.851 49.8951C787.521 49.7344 787.145 49.6541 786.722 49.6541C786.156 49.6541 785.652 49.7894 785.213 50.06C784.773 50.3221 784.426 50.6858 784.172 51.1509C783.919 51.6076 783.792 52.1234 783.792 52.6985C783.792 53.2651 783.919 53.7809 784.172 54.2461C784.426 54.7112 784.773 55.0791 785.213 55.3497C785.652 55.6203 786.156 55.7556 786.722 55.7556C787.136 55.7556 787.513 55.6753 787.851 55.5146C788.015 55.4367 788.163 55.345 788.295 55.2394V55.6287C788.295 56.06 788.156 56.3941 787.876 56.6309C787.606 56.8677 787.23 56.986 786.747 56.986C786.358 56.986 786.024 56.9184 785.745 56.7831C785.475 56.6478 785.229 56.449 785.01 56.1869L783.817 57.3793C784.113 57.8021 784.515 58.1277 785.022 58.356ZM787.788 53.8528C787.593 53.9712 787.361 54.0304 787.09 54.0304C786.819 54.0304 786.583 53.9712 786.38 53.8528C786.185 53.7344 786.033 53.5737 785.923 53.3708C785.813 53.1594 785.758 52.9353 785.758 52.6985C785.758 52.4448 785.813 52.2165 785.923 52.0135C786.033 51.8105 786.189 51.6499 786.392 51.5315C786.595 51.4131 786.828 51.3539 787.09 51.3539C787.361 51.3539 787.593 51.4131 787.788 51.5315C787.991 51.6499 788.143 51.8105 788.244 52.0135C788.354 52.2165 788.409 52.4448 788.409 52.6985C788.409 52.9522 788.354 53.1805 788.244 53.3835C788.143 53.578 787.991 53.7344 787.788 53.8528Z" fill="#AAD9D1"/>
<path fill-rule="evenodd" clip-rule="evenodd" d="M794.32 56.0854C793.686 56.0854 793.111 55.9458 792.595 55.6668C792.088 55.3792 791.686 54.9902 791.39 54.4997C791.094 54.0092 790.946 53.4596 790.946 52.8507C790.946 52.2418 791.094 51.6964 791.39 51.2143C791.686 50.7323 792.088 50.3517 792.595 50.0727C793.102 49.7851 793.678 49.6414 794.32 49.6414C794.963 49.6414 795.538 49.7809 796.045 50.06C796.553 50.339 796.954 50.7238 797.25 51.2143C797.546 51.6964 797.694 52.2418 797.694 52.8507C797.694 53.4596 797.546 54.0092 797.25 54.4997C796.954 54.9902 796.553 55.3792 796.045 55.6668C795.538 55.9458 794.963 56.0854 794.32 56.0854ZM794.32 54.3222C794.599 54.3222 794.844 54.263 795.056 54.1446C795.267 54.0177 795.428 53.8444 795.538 53.6245C795.656 53.3962 795.716 53.1382 795.716 52.8507C795.716 52.5632 795.656 52.3137 795.538 52.1023C795.42 51.8824 795.255 51.7133 795.043 51.5949C794.84 51.468 794.599 51.4046 794.32 51.4046C794.05 51.4046 793.808 51.468 793.597 51.5949C793.386 51.7133 793.221 51.8824 793.102 52.1023C792.984 52.3222 792.925 52.5758 792.925 52.8634C792.925 53.1424 792.984 53.3962 793.102 53.6245C793.221 53.8444 793.386 54.0177 793.597 54.1446C793.808 54.263 794.05 54.3222 794.32 54.3222Z" fill="#AAD9D1"/>
<path fill-rule="evenodd" clip-rule="evenodd" d="M805.012 56.0727C804.598 56.0727 804.218 55.9924 803.871 55.8317C803.688 55.7471 803.524 55.6462 803.376 55.5288V58.5463H801.461V49.7809H803.402V50.2064C803.542 50.0913 803.699 49.9917 803.871 49.9078C804.218 49.7386 804.598 49.6541 805.012 49.6541C805.596 49.6541 806.112 49.7936 806.56 50.0727C807.017 50.3517 807.372 50.7323 807.626 51.2143C807.888 51.6964 808.019 52.2461 808.019 52.8634C808.019 53.4807 807.888 54.0304 807.626 54.5125C807.372 54.9945 807.017 55.375 806.56 55.6541C806.112 55.9332 805.596 56.0727 805.012 56.0727ZM804.658 54.3222C804.936 54.3222 805.178 54.2587 805.38 54.1319C805.592 54.0051 805.757 53.8317 805.875 53.6118C805.994 53.3919 806.053 53.1425 806.053 52.8634C806.053 52.5759 805.994 52.3222 805.875 52.1023C805.757 51.8824 805.592 51.7133 805.38 51.5949C805.178 51.468 804.941 51.4046 804.67 51.4046C804.4 51.4046 804.158 51.468 803.947 51.5949C803.744 51.7133 803.584 51.8824 803.465 52.1023C803.347 52.3222 803.288 52.5759 803.288 52.8634C803.288 53.1425 803.342 53.3919 803.452 53.6118C803.571 53.8317 803.736 54.0051 803.947 54.1319C804.158 54.2587 804.395 54.3222 804.658 54.3222Z" fill="#AAD9D1"/>
<path d="M809.918 55.9587C810.274 56.0518 810.633 56.0982 810.996 56.0982C811.766 56.0982 812.375 55.9207 812.823 55.5655C813.28 55.2103 813.508 54.7325 813.508 54.1321C813.508 53.7431 813.436 53.4302 813.292 53.1934C813.149 52.9482 812.963 52.7536 812.734 52.6099C812.506 52.4661 812.265 52.3519 812.011 52.2674C811.758 52.1828 811.516 52.1109 811.288 52.0517C811.06 51.9925 810.874 51.9249 810.73 51.8488C810.586 51.7726 810.514 51.6712 810.514 51.5443C810.514 51.4259 810.57 51.3371 810.679 51.2779C810.789 51.2103 810.954 51.1765 811.174 51.1765C811.402 51.1765 811.635 51.223 811.872 51.316C812.117 51.409 812.337 51.5697 812.531 51.798L813.635 50.6818C813.356 50.3266 812.992 50.0602 812.544 49.8826C812.104 49.6966 811.622 49.6035 811.098 49.6035C810.599 49.6035 810.164 49.6881 809.792 49.8572C809.419 50.0264 809.132 50.2589 808.929 50.5549C808.726 50.8424 808.624 51.1849 808.624 51.5824C808.624 51.9545 808.696 52.2632 808.84 52.5084C808.984 52.7452 809.17 52.9312 809.398 53.0665C809.626 53.2018 809.868 53.3076 810.121 53.3836C810.375 53.4598 810.616 53.5316 810.844 53.5993C811.072 53.6585 811.259 53.7304 811.402 53.815C811.555 53.8911 811.631 54.0052 811.631 54.1574C811.631 54.2758 811.567 54.3688 811.44 54.4365C811.322 54.5042 811.149 54.538 810.92 54.538C810.59 54.538 810.286 54.4788 810.007 54.3604C809.728 54.2336 809.487 54.0602 809.284 53.8403L808.18 54.9566C808.392 55.1849 808.646 55.3879 808.942 55.5655C809.246 55.7346 809.572 55.8657 809.918 55.9587Z" fill="#AAD9D1"/>
<path d="M817.047 56.0854C816.481 56.0854 815.978 55.9713 815.538 55.743C815.106 55.5062 814.768 55.1848 814.523 54.7789C814.278 54.3645 814.155 53.891 814.155 53.3582V49.781H816.096V53.3328C816.096 53.5442 816.13 53.726 816.198 53.8782C816.274 54.0305 816.384 54.1489 816.527 54.2334C816.671 54.318 816.844 54.3603 817.047 54.3603C817.335 54.3603 817.563 54.2715 817.732 54.0939C817.902 53.9078 817.986 53.6542 817.986 53.3328V49.781H819.927V53.3455C819.927 53.8867 819.804 54.3645 819.559 54.7789C819.314 55.1848 818.976 55.5062 818.544 55.743C818.113 55.9713 817.614 56.0854 817.047 56.0854Z" fill="#AAD9D1"/>
<path d="M822.832 49.7809H820.892V55.9459H822.832V52.3433C822.832 52.1319 822.875 51.9543 822.959 51.8105C823.052 51.6668 823.175 51.5568 823.327 51.4807C823.48 51.3961 823.653 51.3539 823.847 51.3539C824.126 51.3539 824.359 51.4427 824.545 51.6203C824.74 51.7894 824.837 52.0304 824.837 52.3433V55.9459H826.778V52.3433C826.778 52.1319 826.82 51.9543 826.904 51.8105C826.998 51.6668 827.12 51.5568 827.272 51.4807C827.424 51.3961 827.598 51.3539 827.792 51.3539C828.072 51.3539 828.304 51.4427 828.49 51.6203C828.684 51.7894 828.782 52.0304 828.782 52.3433V55.9459H830.723V52.1277C830.723 51.6118 830.613 51.1721 830.393 50.8084C830.181 50.4363 829.89 50.153 829.518 49.9585C829.154 49.7555 828.735 49.6541 828.262 49.6541C827.78 49.6541 827.344 49.7598 826.955 49.9712C826.702 50.1059 826.482 50.2797 826.292 50.4927C826.116 50.2699 825.902 50.0877 825.648 49.9458C825.31 49.7513 824.926 49.6541 824.494 49.6541C824.038 49.6541 823.628 49.7513 823.264 49.9458C823.106 50.0267 822.962 50.1237 822.832 50.2366V49.7809Z" fill="#AAD9D1"/>
</g>
<g clip-path="url(#clip5_4111_158)">
<path d="M919.809 60C924.177 60 927.718 56.4184 927.718 52V46.4C927.718 45.7635 927.468 45.153 927.023 44.7029C926.578 44.2529 925.975 44 925.346 44H920.205V47.5096C920.205 48.3104 920.253 49.14 920.668 49.8216C920.965 50.3101 921.363 50.7282 921.834 51.0475C922.305 51.3669 922.839 51.58 923.398 51.6724L923.55 51.6972C923.612 51.7188 923.666 51.7596 923.705 51.8139C923.743 51.8682 923.764 51.9333 923.764 52C923.764 52.0667 923.743 52.1318 923.705 52.1861C923.666 52.2404 923.612 52.2812 923.55 52.3028L923.398 52.3276C922.581 52.4627 921.825 52.8542 921.24 53.4468C920.654 54.0395 920.267 54.8033 920.133 55.6304L920.109 55.7836C920.087 55.8468 920.047 55.9016 919.993 55.9404C919.939 55.9792 919.875 56.0001 919.809 56.0001C919.743 56.0001 919.679 55.9792 919.625 55.9404C919.571 55.9016 919.531 55.8468 919.51 55.7836L919.485 55.6304C919.394 55.0643 919.183 54.5247 918.867 54.0482C918.552 53.5717 918.138 53.1695 917.656 52.8688C916.982 52.4488 916.161 52.4 915.37 52.4H911.91C912.116 56.6324 915.574 60 919.809 60Z" fill="#AAD9D1"/>
<path d="M911.9 51.6H915.37C916.161 51.6 916.982 51.5512 917.655 51.1312C918.182 50.8029 918.626 50.3544 918.95 49.8216C919.365 49.14 919.414 48.3104 919.414 47.5096V44H914.273C913.643 44 913.04 44.2529 912.595 44.7029C912.15 45.153 911.9 45.7635 911.9 46.4V51.6ZM930.271 44.8C930.271 45.0122 930.188 45.2157 930.039 45.3657C929.891 45.5157 929.69 45.6 929.48 45.6C929.27 45.6 929.069 45.5157 928.921 45.3657C928.772 45.2157 928.689 45.0122 928.689 44.8C928.689 44.5878 928.772 44.3843 928.921 44.2343C929.069 44.0843 929.27 44 929.48 44C929.69 44 929.891 44.0843 930.039 44.2343C930.188 44.3843 930.271 44.5878 930.271 44.8ZM995.622 48.8416C997.833 48.8416 998.9 50.4036 998.9 52.2128V55.6108H996.586V52.616C996.586 51.796 996.29 51.1192 995.442 51.1192C994.594 51.1192 994.311 51.796 994.311 52.616V55.6104H991.997V52.616C991.997 51.796 991.715 51.1192 990.866 51.1192C990.018 51.1192 989.722 51.796 989.722 52.616V55.6104H987.409V52.2124C987.409 50.4032 988.475 48.8412 990.686 48.8412C991.895 48.8412 992.769 49.3228 993.167 50.1168C993.591 49.3228 994.517 48.8408 995.622 48.8408V48.8416ZM983.251 53.528C983.996 53.528 984.318 52.838 984.318 52.0176V49.1016H986.631V52.304C986.631 54.2176 985.526 55.806 983.251 55.806C980.975 55.806 979.87 54.218 979.87 52.304V49.1016H982.184V52.0176C982.184 52.8376 982.505 53.528 983.251 53.528ZM976.468 55.8188C975.015 55.8188 974.077 55.3112 973.524 54.322L975.195 53.3716C975.427 53.788 975.773 53.9964 976.352 53.9964C976.828 53.9964 977.046 53.8272 977.046 53.6188C977.046 52.8248 973.653 53.632 973.653 51.1068C973.653 49.8828 974.681 48.8936 976.429 48.8936C977.959 48.8936 978.794 49.6484 979.167 50.3776L977.496 51.3408C977.355 50.9504 976.918 50.716 976.481 50.716C976.146 50.716 975.966 50.8592 975.966 51.0544C975.966 51.8616 979.36 51.1196 979.36 53.5668C979.36 54.9336 978.036 55.8188 976.468 55.8188ZM968.384 58.6048H966.07V52.3432C966.07 50.3512 967.548 48.9064 969.605 48.9064C971.611 48.9064 973.14 50.4556 973.14 52.3432C973.14 54.426 971.777 55.806 969.734 55.806C969.258 55.806 968.783 55.6628 968.384 55.4412V58.6048ZM969.605 53.606C970.338 53.606 970.826 53.0332 970.826 52.356C970.826 51.6664 970.338 51.1064 969.605 51.1064C968.872 51.1064 968.384 51.6664 968.384 52.3564C968.384 53.0332 968.872 53.606 969.605 53.606ZM963.752 48.412C962.994 48.412 962.364 47.774 962.364 47.006C962.364 46.238 962.994 45.6 963.752 45.6C964.511 45.6 965.141 46.238 965.141 47.006C965.141 47.774 964.511 48.412 963.752 48.412ZM962.596 49.1016H964.91V55.6108H962.596V49.1016ZM958.156 55.806C956.151 55.806 954.621 54.244 954.621 52.3432C954.621 50.4556 956.151 48.8936 958.156 48.8936C960.162 48.8936 961.691 50.4556 961.691 52.3432C961.691 54.244 960.162 55.806 958.156 55.806ZM958.156 53.606C958.889 53.606 959.378 53.0332 959.378 52.356C959.378 51.6664 958.889 51.0936 958.156 51.0936C957.424 51.0936 956.935 51.6664 956.935 52.356C956.935 53.0332 957.424 53.606 958.156 53.606ZM950.252 58.8C948.659 58.8 947.502 58.084 946.91 56.808L948.826 55.7668C949.031 56.2096 949.417 56.6652 950.214 56.6652C951.05 56.6652 951.602 56.1312 951.667 55.194C951.358 55.4676 950.869 55.6756 950.137 55.6756C948.35 55.6756 946.91 54.2828 946.91 52.33C946.91 50.4428 948.44 48.9064 950.445 48.9064C952.502 48.9064 953.98 50.3516 953.98 52.3432V54.9208C953.98 57.264 952.373 58.8 950.252 58.8ZM950.407 53.476C951.101 53.476 951.628 52.994 951.628 52.278C951.628 51.5752 951.101 51.1064 950.407 51.1064C949.725 51.1064 949.185 51.5752 949.185 52.2784C949.185 52.9944 949.725 53.4756 950.407 53.4756V53.476ZM942.986 55.806C940.98 55.806 939.45 54.244 939.45 52.3432C939.45 50.4556 940.98 48.8936 942.986 48.8936C944.99 48.8936 946.52 50.4556 946.52 52.3432C946.52 54.244 944.991 55.806 942.986 55.806ZM942.986 53.606C943.718 53.606 944.207 53.0332 944.207 52.356C944.207 51.6664 943.718 51.0936 942.986 51.0936C942.253 51.0936 941.764 51.6664 941.764 52.356C941.764 53.0332 942.253 53.606 942.986 53.606ZM935.237 46.824V53.3976H939.068V55.6108H934.915C933.45 55.6108 932.859 54.8296 932.859 53.5928V46.824H935.237Z" fill="#AAD9D1"/>
</g>
<g clip-path="url(#clip6_4111_158)">
<path fill-rule="evenodd" clip-rule="evenodd" d="M1090.12 48.6741C1089.46 48.2346 1088.69 48 1087.9 48V44C1089.48 44 1091.03 44.4692 1092.34 45.3482C1093.66 46.2273 1094.69 47.4767 1095.29 48.9385C1095.9 50.4003 1096.05 52.0089 1095.75 53.5607C1095.44 55.1126 1094.68 56.538 1093.56 57.6568C1092.44 58.7757 1091.01 59.5376 1089.46 59.8463C1087.91 60.155 1086.3 59.9965 1084.84 59.391C1083.38 58.7855 1082.13 57.7602 1081.25 56.4446C1080.37 55.129 1079.9 53.5822 1079.9 52H1083.9C1083.9 52.7911 1084.13 53.5645 1084.57 54.2223C1085.01 54.8801 1085.64 55.3928 1086.37 55.6955C1087.1 55.9983 1087.9 56.0775 1088.68 55.9231C1089.46 55.7688 1090.17 55.3878 1090.73 54.8284C1091.29 54.269 1091.67 53.5563 1091.82 52.7804C1091.98 52.0044 1091.9 51.2002 1091.6 50.4693C1091.29 49.7384 1090.78 49.1136 1090.12 48.6741Z" fill="#AAD9D1"/>
<path fill-rule="evenodd" clip-rule="evenodd" d="M1083.9 44C1083.9 44.5253 1083.8 45.0454 1083.6 45.5307C1083.39 46.016 1083.1 46.457 1082.73 46.8284C1082.36 47.1999 1081.92 47.4945 1081.43 47.6955C1080.95 47.8965 1080.43 48 1079.9 48L1079.9 52C1080.95 52 1081.99 51.7931 1082.96 51.391C1083.93 50.989 1084.81 50.3997 1085.56 49.6568C1086.3 48.914 1086.89 48.0321 1087.29 47.0615C1087.69 46.0909 1087.9 45.0506 1087.9 44L1083.9 44Z" fill="#AAD9D1"/>
<path d="M1130.15 49.781H1128.21V55.9459H1130.15V49.781Z" fill="#AAD9D1"/>
<path d="M1128.42 48.6267C1128.63 48.8296 1128.88 48.9311 1129.18 48.9311C1129.49 48.9311 1129.74 48.8296 1129.93 48.6267C1130.13 48.4153 1130.22 48.1616 1130.22 47.8656C1130.22 47.5612 1130.13 47.3074 1129.93 47.1045C1129.74 46.9015 1129.49 46.8 1129.18 46.8C1128.88 46.8 1128.63 46.9015 1128.42 47.1045C1128.23 47.3074 1128.13 47.5612 1128.13 47.8656C1128.13 48.1616 1128.23 48.4153 1128.42 48.6267Z" fill="#AAD9D1"/>
<path d="M1100.36 55.9459V46.9902H1102.35V54.1954H1106.32V55.9459H1100.36Z" fill="#AAD9D1"/>
<path fill-rule="evenodd" clip-rule="evenodd" d="M1109.91 56.0854C1109.28 56.0854 1108.7 55.9458 1108.19 55.6668C1107.68 55.3792 1107.28 54.9902 1106.98 54.4997C1106.68 54.0092 1106.54 53.4596 1106.54 52.8507C1106.54 52.2418 1106.68 51.6964 1106.98 51.2143C1107.28 50.7323 1107.68 50.3517 1108.19 50.0727C1108.69 49.7851 1109.27 49.6414 1109.91 49.6414C1110.55 49.6414 1111.13 49.7809 1111.64 50.06C1112.14 50.339 1112.55 50.7238 1112.84 51.2143C1113.14 51.6964 1113.29 52.2418 1113.29 52.8507C1113.29 53.4596 1113.14 54.0092 1112.84 54.4997C1112.55 54.9902 1112.14 55.3792 1111.64 55.6668C1111.13 55.9458 1110.55 56.0854 1109.91 56.0854ZM1109.91 54.3222C1110.19 54.3222 1110.44 54.263 1110.65 54.1446C1110.86 54.0177 1111.02 53.8444 1111.13 53.6245C1111.25 53.3962 1111.31 53.1382 1111.31 52.8507C1111.31 52.5632 1111.25 52.3137 1111.13 52.1023C1111.01 51.8824 1110.85 51.7133 1110.63 51.5949C1110.43 51.468 1110.19 51.4046 1109.91 51.4046C1109.64 51.4046 1109.4 51.468 1109.19 51.5949C1108.98 51.7133 1108.81 51.8824 1108.69 52.1023C1108.57 52.3222 1108.52 52.5758 1108.52 52.8634C1108.52 53.1424 1108.57 53.3962 1108.69 53.6245C1108.81 53.8444 1108.98 54.0177 1109.19 54.1446C1109.4 54.263 1109.64 54.3222 1109.91 54.3222Z" fill="#AAD9D1"/>
<path fill-rule="evenodd" clip-rule="evenodd" d="M1114.82 58.356C1115.34 58.5928 1115.93 58.7112 1116.61 58.7112C1117.27 58.7112 1117.86 58.5801 1118.37 58.3179C1118.89 58.0558 1119.3 57.6922 1119.59 57.2271C1119.89 56.7619 1120.04 56.2123 1120.04 55.578V49.7809H1118.13V50.1951C1117.99 50.076 1117.83 49.976 1117.65 49.8951C1117.32 49.7344 1116.94 49.6541 1116.52 49.6541C1115.96 49.6541 1115.45 49.7894 1115.01 50.06C1114.57 50.3221 1114.23 50.6858 1113.97 51.1509C1113.72 51.6076 1113.59 52.1234 1113.59 52.6985C1113.59 53.2651 1113.72 53.7809 1113.97 54.2461C1114.23 54.7112 1114.57 55.0791 1115.01 55.3497C1115.45 55.6203 1115.96 55.7556 1116.52 55.7556C1116.94 55.7556 1117.31 55.6753 1117.65 55.5146C1117.81 55.4367 1117.96 55.345 1118.1 55.2394V55.6287C1118.1 56.06 1117.96 56.3941 1117.68 56.6309C1117.41 56.8677 1117.03 56.986 1116.55 56.986C1116.16 56.986 1115.82 56.9184 1115.55 56.7831C1115.27 56.6478 1115.03 56.449 1114.81 56.1869L1113.62 57.3793C1113.91 57.8021 1114.31 58.1277 1114.82 58.356ZM1117.59 53.8528C1117.39 53.9712 1117.16 54.0304 1116.89 54.0304C1116.62 54.0304 1116.38 53.9712 1116.18 53.8528C1115.99 53.7344 1115.83 53.5737 1115.72 53.3708C1115.61 53.1594 1115.56 52.9353 1115.56 52.6985C1115.56 52.4448 1115.61 52.2165 1115.72 52.0135C1115.83 51.8105 1115.99 51.6499 1116.19 51.5315C1116.4 51.4131 1116.63 51.3539 1116.89 51.3539C1117.16 51.3539 1117.39 51.4131 1117.59 51.5315C1117.79 51.6499 1117.94 51.8105 1118.04 52.0135C1118.15 52.2165 1118.21 52.4448 1118.21 52.6985C1118.21 52.9522 1118.15 53.1805 1118.04 53.3835C1117.94 53.578 1117.79 53.7344 1117.59 53.8528Z" fill="#AAD9D1"/>
<path fill-rule="evenodd" clip-rule="evenodd" d="M1124.12 56.0854C1123.49 56.0854 1122.91 55.9458 1122.4 55.6668C1121.89 55.3792 1121.49 54.9902 1121.19 54.4997C1120.89 54.0092 1120.75 53.4596 1120.75 52.8507C1120.75 52.2418 1120.89 51.6964 1121.19 51.2143C1121.49 50.7323 1121.89 50.3517 1122.4 50.0727C1122.9 49.7851 1123.48 49.6414 1124.12 49.6414C1124.76 49.6414 1125.34 49.7809 1125.85 50.06C1126.35 50.339 1126.75 50.7238 1127.05 51.2143C1127.35 51.6964 1127.49 52.2418 1127.49 52.8507C1127.49 53.4596 1127.35 54.0092 1127.05 54.4997C1126.75 54.9902 1126.35 55.3792 1125.85 55.6668C1125.34 55.9458 1124.76 56.0854 1124.12 56.0854ZM1124.12 54.3222C1124.4 54.3222 1124.64 54.263 1124.86 54.1446C1125.07 54.0177 1125.23 53.8444 1125.34 53.6245C1125.46 53.3962 1125.52 53.1382 1125.52 52.8507C1125.52 52.5632 1125.46 52.3137 1125.34 52.1023C1125.22 51.8824 1125.05 51.7133 1124.84 51.5949C1124.64 51.468 1124.4 51.4046 1124.12 51.4046C1123.85 51.4046 1123.61 51.468 1123.4 51.5949C1123.19 51.7133 1123.02 51.8824 1122.9 52.1023C1122.78 52.3222 1122.72 52.5758 1122.72 52.8634C1122.72 53.1424 1122.78 53.3962 1122.9 53.6245C1123.02 53.8444 1123.19 54.0177 1123.4 54.1446C1123.61 54.263 1123.85 54.3222 1124.12 54.3222Z" fill="#AAD9D1"/>
<path fill-rule="evenodd" clip-rule="evenodd" d="M1134.81 56.0727C1134.4 56.0727 1134.02 55.9924 1133.67 55.8317C1133.49 55.7471 1133.32 55.6462 1133.18 55.5288V58.5463H1131.26V49.7809H1133.2V50.2064C1133.34 50.0913 1133.5 49.9917 1133.67 49.9078C1134.02 49.7386 1134.4 49.6541 1134.81 49.6541C1135.4 49.6541 1135.91 49.7936 1136.36 50.0727C1136.82 50.3517 1137.17 50.7323 1137.43 51.2143C1137.69 51.6964 1137.82 52.2461 1137.82 52.8634C1137.82 53.4807 1137.69 54.0304 1137.43 54.5125C1137.17 54.9945 1136.82 55.375 1136.36 55.6541C1135.91 55.9332 1135.4 56.0727 1134.81 56.0727ZM1134.46 54.3222C1134.74 54.3222 1134.98 54.2587 1135.18 54.1319C1135.39 54.0051 1135.56 53.8317 1135.68 53.6118C1135.79 53.3919 1135.85 53.1425 1135.85 52.8634C1135.85 52.5759 1135.79 52.3222 1135.68 52.1023C1135.56 51.8824 1135.39 51.7133 1135.18 51.5949C1134.98 51.468 1134.74 51.4046 1134.47 51.4046C1134.2 51.4046 1133.96 51.468 1133.75 51.5949C1133.54 51.7133 1133.38 51.8824 1133.27 52.1023C1133.15 52.3222 1133.09 52.5759 1133.09 52.8634C1133.09 53.1425 1133.14 53.3919 1133.25 53.6118C1133.37 53.8317 1133.54 54.0051 1133.75 54.1319C1133.96 54.2587 1134.2 54.3222 1134.46 54.3222Z" fill="#AAD9D1"/>
<path d="M1139.72 55.9587C1140.07 56.0518 1140.43 56.0982 1140.8 56.0982C1141.57 56.0982 1142.17 55.9207 1142.62 55.5655C1143.08 55.2103 1143.31 54.7325 1143.31 54.1321C1143.31 53.7431 1143.24 53.4302 1143.09 53.1934C1142.95 52.9482 1142.76 52.7536 1142.53 52.6099C1142.31 52.4661 1142.06 52.3519 1141.81 52.2674C1141.56 52.1828 1141.32 52.1109 1141.09 52.0517C1140.86 51.9925 1140.67 51.9249 1140.53 51.8488C1140.39 51.7726 1140.31 51.6712 1140.31 51.5443C1140.31 51.4259 1140.37 51.3371 1140.48 51.2779C1140.59 51.2103 1140.75 51.1765 1140.97 51.1765C1141.2 51.1765 1141.43 51.223 1141.67 51.316C1141.92 51.409 1142.14 51.5697 1142.33 51.798L1143.43 50.6818C1143.16 50.3266 1142.79 50.0602 1142.34 49.8826C1141.9 49.6966 1141.42 49.6035 1140.9 49.6035C1140.4 49.6035 1139.96 49.6881 1139.59 49.8572C1139.22 50.0264 1138.93 50.2589 1138.73 50.5549C1138.53 50.8424 1138.42 51.1849 1138.42 51.5824C1138.42 51.9545 1138.5 52.2632 1138.64 52.5084C1138.78 52.7452 1138.97 52.9312 1139.2 53.0665C1139.43 53.2018 1139.67 53.3076 1139.92 53.3836C1140.17 53.4598 1140.42 53.5316 1140.64 53.5993C1140.87 53.6585 1141.06 53.7304 1141.2 53.815C1141.35 53.8911 1141.43 54.0052 1141.43 54.1574C1141.43 54.2758 1141.37 54.3688 1141.24 54.4365C1141.12 54.5042 1140.95 54.538 1140.72 54.538C1140.39 54.538 1140.09 54.4788 1139.81 54.3604C1139.53 54.2336 1139.29 54.0602 1139.08 53.8403L1137.98 54.9566C1138.19 55.1849 1138.45 55.3879 1138.74 55.5655C1139.05 55.7346 1139.37 55.8657 1139.72 55.9587Z" fill="#AAD9D1"/>
<path d="M1146.85 56.0854C1146.28 56.0854 1145.78 55.9713 1145.34 55.743C1144.91 55.5062 1144.57 55.1848 1144.32 54.7789C1144.08 54.3645 1143.96 53.891 1143.96 53.3582V49.781H1145.9V53.3328C1145.9 53.5442 1145.93 53.726 1146 53.8782C1146.07 54.0305 1146.18 54.1489 1146.33 54.2334C1146.47 54.318 1146.64 54.3603 1146.85 54.3603C1147.13 54.3603 1147.36 54.2715 1147.53 54.0939C1147.7 53.9078 1147.79 53.6542 1147.79 53.3328V49.781H1149.73V53.3455C1149.73 53.8867 1149.6 54.3645 1149.36 54.7789C1149.11 55.1848 1148.78 55.5062 1148.34 55.743C1147.91 55.9713 1147.41 56.0854 1146.85 56.0854Z" fill="#AAD9D1"/>
<path d="M1152.63 49.7809H1150.69V55.9459H1152.63V52.3433C1152.63 52.1319 1152.67 51.9543 1152.76 51.8105C1152.85 51.6668 1152.98 51.5568 1153.13 51.4807C1153.28 51.3961 1153.45 51.3539 1153.65 51.3539C1153.93 51.3539 1154.16 51.4427 1154.34 51.6203C1154.54 51.7894 1154.64 52.0304 1154.64 52.3433V55.9459H1156.58V52.3433C1156.58 52.1319 1156.62 51.9543 1156.7 51.8105C1156.8 51.6668 1156.92 51.5568 1157.07 51.4807C1157.22 51.3961 1157.4 51.3539 1157.59 51.3539C1157.87 51.3539 1158.1 51.4427 1158.29 51.6203C1158.48 51.7894 1158.58 52.0304 1158.58 52.3433V55.9459H1160.52V52.1277C1160.52 51.6118 1160.41 51.1721 1160.19 50.8084C1159.98 50.4363 1159.69 50.153 1159.32 49.9585C1158.95 49.7555 1158.54 49.6541 1158.06 49.6541C1157.58 49.6541 1157.14 49.7598 1156.76 49.9712C1156.5 50.1059 1156.28 50.2797 1156.09 50.4927C1155.92 50.2699 1155.7 50.0877 1155.45 49.9458C1155.11 49.7513 1154.73 49.6541 1154.29 49.6541C1153.84 49.6541 1153.43 49.7513 1153.06 49.9458C1152.91 50.0267 1152.76 50.1237 1152.63 50.2366V49.7809Z" fill="#AAD9D1"/>
</g>
<g clip-path="url(#clip7_4111_158)">
<path d="M1290.64 55.8096H1292.51V48.7742H1290.64V55.8096ZM1290.64 47.6771H1292.51V46.0039H1290.64V47.6771Z" fill="#AAD9D1"/>
<path d="M1293.71 58.1135H1295.57V55.014H1295.6C1296 55.6175 1296.64 56.0152 1297.63 56.0152C1299.44 56.0152 1300.68 54.5752 1300.68 52.2986C1300.68 50.1043 1299.48 48.582 1297.62 48.582C1296.66 48.582 1296 49.0346 1295.55 49.6518H1295.51V48.774H1293.71V58.1135ZM1297.23 54.4655C1296.12 54.4655 1295.53 53.6289 1295.53 52.3535C1295.53 51.0918 1296 50.0906 1297.17 50.0906C1298.32 50.0906 1298.78 51.0232 1298.78 52.3535C1298.78 53.6838 1298.18 54.4655 1297.23 54.4655Z" fill="#AAD9D1"/>
<path d="M1304.4 56.0152C1306.15 56.0152 1307.36 55.1649 1307.36 53.7523C1307.36 52.1066 1306.06 51.7775 1304.88 51.5306C1303.88 51.3249 1302.94 51.27 1302.94 50.6666C1302.94 50.1592 1303.42 49.8849 1304.15 49.8849C1304.95 49.8849 1305.43 50.1592 1305.51 50.9135H1307.19C1307.06 49.5009 1306.03 48.582 1304.18 48.582C1302.57 48.582 1301.31 49.3089 1301.31 50.8312C1301.31 52.3672 1302.55 52.71 1303.81 52.9569C1304.77 53.1489 1305.66 53.2175 1305.66 53.8895C1305.66 54.3832 1305.19 54.6986 1304.37 54.6986C1303.53 54.6986 1302.96 54.342 1302.83 53.5329H1301.11C1301.21 55.0278 1302.35 56.0152 1304.4 56.0152Z" fill="#AAD9D1"/>
<path d="M1314.44 55.8096V48.7742H1312.57V52.8336C1312.57 53.7662 1312.04 54.4244 1311.16 54.4244C1310.37 54.4244 1310 53.9719 1310 53.1491V48.7742H1308.15V53.4645C1308.15 55.0005 1309.02 56.0016 1310.59 56.0016C1311.57 56.0016 1312.12 55.6313 1312.6 54.9868H1312.64V55.8096H1314.44Z" fill="#AAD9D1"/>
<path d="M1315.65 55.8095H1317.51V51.7226C1317.51 50.79 1318.02 50.1866 1318.77 50.1866C1319.46 50.1866 1319.86 50.598 1319.86 51.3935V55.8095H1321.72V51.7226C1321.72 50.79 1322.2 50.1866 1322.98 50.1866C1323.67 50.1866 1324.07 50.598 1324.07 51.3935V55.8095H1325.93V51.078C1325.93 49.542 1325.1 48.582 1323.61 48.582C1322.72 48.582 1321.98 49.0483 1321.5 49.8163H1321.48C1321.13 49.0758 1320.42 48.582 1319.53 48.582C1318.55 48.582 1317.87 49.0758 1317.48 49.7203H1317.44V48.774H1315.65V55.8095Z" fill="#AAD9D1"/>
<path d="M1242.03 55.8096H1243.89V46.0039H1242.03V55.8096Z" fill="#AAD9D1"/>
<path d="M1248.46 56.0152C1250.64 56.0152 1252.13 54.3969 1252.13 52.2986C1252.13 50.2003 1250.64 48.582 1248.46 48.582C1246.27 48.582 1244.78 50.2003 1244.78 52.2986C1244.78 54.3969 1246.27 56.0152 1248.46 56.0152ZM1248.46 54.5889C1247.3 54.5889 1246.67 53.67 1246.67 52.2986C1246.67 50.9272 1247.3 49.9946 1248.46 49.9946C1249.59 49.9946 1250.24 50.9272 1250.24 52.2986C1250.24 53.67 1249.59 54.5889 1248.46 54.5889Z" fill="#AAD9D1"/>
<path d="M1256.1 58.2095C1257.14 58.2095 1258.04 57.9626 1258.63 57.414C1259.16 56.934 1259.47 56.262 1259.47 55.2746V48.774H1257.67V49.5146H1257.65C1257.22 48.9249 1256.58 48.582 1255.7 48.582C1253.92 48.582 1252.66 49.926 1252.66 52.0243C1252.66 54.15 1254.19 55.3843 1255.75 55.3843C1256.65 55.3843 1257.18 55.0278 1257.59 54.5615H1257.63V55.3295C1257.63 56.2895 1257.13 56.7969 1256.07 56.7969C1255.21 56.7969 1254.81 56.454 1254.66 56.0152H1252.81C1253 57.3866 1254.18 58.2095 1256.1 58.2095ZM1256.07 53.8895C1255.11 53.8895 1254.48 53.19 1254.48 51.9969C1254.48 50.8175 1255.11 50.0769 1256.06 50.0769C1257.18 50.0769 1257.73 50.9546 1257.73 51.9832C1257.73 53.0255 1257.25 53.8895 1256.07 53.8895Z" fill="#AAD9D1"/>
<path d="M1264 56.0152C1266.19 56.0152 1267.68 54.3969 1267.68 52.2986C1267.68 50.2003 1266.19 48.582 1264 48.582C1261.82 48.582 1260.33 50.2003 1260.33 52.2986C1260.33 54.3969 1261.82 56.0152 1264 56.0152ZM1264 54.5889C1262.85 54.5889 1262.22 53.67 1262.22 52.2986C1262.22 50.9272 1262.85 49.9946 1264 49.9946C1265.14 49.9946 1265.79 50.9272 1265.79 52.2986C1265.79 53.67 1265.14 54.5889 1264 54.5889Z" fill="#AAD9D1"/>
<path d="M1326.61 47.619C1326.61 47.3034 1326.87 47.0476 1327.18 47.0476H1328.32C1328.64 47.0476 1328.9 47.3034 1328.9 47.619C1328.9 47.9346 1328.64 48.1905 1328.32 48.1905H1327.18C1326.87 48.1905 1326.61 47.9346 1326.61 47.619Z" fill="#AAD9D1"/>
<path fill-rule="evenodd" clip-rule="evenodd" d="M1278.99 44C1283.41 44 1286.99 47.5817 1286.99 52C1286.99 56.4183 1283.41 60 1278.99 60C1274.57 60 1270.99 56.4183 1270.99 52C1270.99 47.5817 1274.57 44 1278.99 44ZM1278.7 44.5986C1277.79 44.7271 1276.92 45.4604 1276.25 46.687C1276.05 47.0427 1275.87 47.4358 1275.72 47.8602C1276.64 47.6297 1277.64 47.4938 1278.7 47.4727V44.5986ZM1275.04 48.0523C1275.23 47.4518 1275.47 46.8994 1275.74 46.4083C1276.07 45.8002 1276.47 45.2752 1276.92 44.8719C1274.49 45.5781 1272.57 47.4947 1271.86 49.9263C1272.27 49.4791 1272.79 49.0822 1273.4 48.7478C1273.89 48.4777 1274.44 48.2436 1275.04 48.0523ZM1274.85 48.7284C1274.62 49.6457 1274.48 50.6534 1274.46 51.7108H1271.59C1271.72 50.7982 1272.45 49.9291 1273.68 49.2546C1274.03 49.0589 1274.43 48.8823 1274.85 48.7284ZM1275.04 51.7108C1275.07 50.5568 1275.23 49.4734 1275.51 48.5161C1276.46 48.2412 1277.55 48.075 1278.7 48.0512V49.3003C1278.27 50.4025 1277.39 51.2805 1276.29 51.7108H1275.04ZM1274.46 52.2892H1271.59C1271.72 53.2018 1272.45 54.0708 1273.68 54.7454C1274.03 54.9411 1274.43 55.1177 1274.85 55.2716C1274.62 54.3543 1274.48 53.3466 1274.46 52.2892ZM1275.51 55.4839C1275.23 54.5266 1275.07 53.4432 1275.04 52.2892H1276.29C1277.39 52.7195 1278.27 53.5975 1278.7 54.6997V55.9488C1277.55 55.925 1276.46 55.7588 1275.51 55.4839ZM1275.04 55.9477C1274.44 55.7564 1273.89 55.5223 1273.4 55.2522C1272.79 54.9178 1272.27 54.5209 1271.86 54.0737C1272.57 56.5053 1274.49 58.4219 1276.92 59.1281C1276.47 58.7248 1276.07 58.1998 1275.74 57.5917C1275.47 57.1006 1275.23 56.5482 1275.04 55.9477ZM1278.7 59.4014C1277.79 59.2729 1276.92 58.5396 1276.25 57.313C1276.05 56.9573 1275.87 56.5642 1275.72 56.1398C1276.64 56.3703 1277.64 56.5062 1278.7 56.5272V59.4014ZM1281.06 59.1281C1281.51 58.7248 1281.91 58.1998 1282.24 57.5917C1282.51 57.1006 1282.75 56.5482 1282.94 55.9477C1283.54 55.7564 1284.09 55.5223 1284.58 55.2522C1285.19 54.9178 1285.72 54.5209 1286.12 54.0737C1285.41 56.5053 1283.5 58.4219 1281.06 59.1281ZM1282.26 56.1398C1282.11 56.5642 1281.93 56.9573 1281.74 57.313C1281.06 58.5396 1280.19 59.2729 1279.28 59.4014V56.5272C1280.34 56.5062 1281.35 56.3703 1282.26 56.1398ZM1283.13 55.2716C1283.56 55.1177 1283.95 54.9411 1284.3 54.7454C1285.53 54.0709 1286.26 53.2018 1286.39 52.2892H1283.52C1283.5 53.3466 1283.36 54.3543 1283.13 55.2716ZM1282.94 52.2892C1282.92 53.4432 1282.75 54.5266 1282.47 55.4839C1281.52 55.7588 1280.43 55.925 1279.28 55.9488V54.7006C1279.71 53.598 1280.59 52.7196 1281.69 52.2892H1282.94ZM1283.52 51.7108H1286.39C1286.26 50.7982 1285.53 49.9291 1284.3 49.2546C1283.95 49.0589 1283.56 48.8823 1283.13 48.7284C1283.36 49.6457 1283.5 50.6534 1283.52 51.7108ZM1282.47 48.5161C1282.75 49.4734 1282.92 50.5568 1282.94 51.7108H1281.69C1280.59 51.2804 1279.71 50.402 1279.28 49.2994V48.0512C1280.43 48.075 1281.52 48.2412 1282.47 48.5161ZM1282.94 48.0523C1283.54 48.2436 1284.09 48.4777 1284.58 48.7478C1285.19 49.0822 1285.72 49.4791 1286.12 49.9263C1285.41 47.4947 1283.5 45.5781 1281.06 44.8719C1281.51 45.2752 1281.91 45.8002 1282.24 46.4083C1282.51 46.8994 1282.75 47.4518 1282.94 48.0523ZM1279.28 44.5986C1280.19 44.7271 1281.06 45.4604 1281.74 46.687C1281.93 47.0427 1282.11 47.4358 1282.26 47.8602C1281.35 47.6297 1280.34 47.4938 1279.28 47.4727V44.5986Z" fill="#AAD9D1"/>
</g>
<rect x="96" y="112" width="112" height="1248" transform="rotate(-90 96 112)" fill="url(#paint0_linear_4111_158)"/>
<defs>
<linearGradient id="paint0_linear_4111_158" x1="152.154" y1="112" x2="141.336" y2="1359.91" gradientUnits="userSpaceOnUse">
<stop stop-color="#080808"/>
<stop offset="0.5" stop-color="#080808" stop-opacity="0"/>
<stop offset="1" stop-color="#080808"/>
</linearGradient>
<clipPath id="clip0_4111_158">
<rect width="70.4" height="16" fill="white" transform="translate(111.1 44)"/>
</clipPath>
<clipPath id="clip1_4111_158">
<rect width="87" height="16" fill="white" transform="translate(262.5 44)"/>
</clipPath>
<clipPath id="clip2_4111_158">
<rect width="70.4" height="16" fill="white" transform="translate(430.5 44)"/>
</clipPath>
<clipPath id="clip3_4111_158">
<rect width="87.2" height="16" fill="white" transform="translate(581.9 44)"/>
</clipPath>
<clipPath id="clip4_4111_158">
<rect width="80.8" height="16" fill="white" transform="translate(750.1 44)"/>
</clipPath>
<clipPath id="clip5_4111_158">
<rect width="87" height="16" fill="white" transform="translate(911.9 44)"/>
</clipPath>
<clipPath id="clip6_4111_158">
<rect width="80.8" height="16" fill="white" transform="translate(1079.9 44)"/>
</clipPath>
<clipPath id="clip7_4111_158">
<rect width="87.2" height="16" fill="white" transform="translate(1241.7 44)"/>
</clipPath>
</defs>
</svg>
